<svg xmlns="http://www.w3.org/2000/svg" width="639.655" height="110" viewBox="0 0 639.655 110"><path d="m 156.5,29.3 v 0 H 155 c -0.3,0 -0.6,-0.3 -0.6,-0.6 V 1.9 c 0,-0.3 0,-0.6 0.3,-0.7 C 155,1 155.7,1 156.2,1 h 1.8 c 2.3,0 4.2,1.9 4.2,4.2 v 10.2 l 6.4,-6.5 c 1.3,-1.2 5.9,-5.9 5.9,-5.9 1.1,-1.2 2.7,-2 4.6,-2 h 1.1 c 0.8,0 1.4,0.2 1.8,0.8 0.1,0.2 0.4,0.5 0.5,0.9 0.1,0.5 0.1,1 0.1,1 0,1.3 -0.5,2.5 -1.4,3.5 l -7,7.1 c -1.9,1.8 -0.3,3.7 -0.3,3.7 0.8,0.8 2.4,1.9 3.8,2.4 l 1.7,0.7 c 2,0.9 3.2,2.8 3.2,4.8 v 2.9 c 0,0.4 -0.2,0.7 -0.6,0.7 h -1.2 c -1.6,0 -3.5,-0.9 -3.5,-0.9 l -7.9,-3.3 c -0.8,-0.4 -1.7,-0.7 -2.7,-0.8 -0.3,-0.1 -0.6,-0.1 -0.9,-0.1 h -0.6 c -0.9,0.1 -1.7,0.5 -2.3,1.1 -1,1 -1.8,1.8 -1.8,1.8 -1.1,1.1 -2.7,2 -4.6,2 z" fill="#eb3c96" transform="matrix(3.4482759,0,0,3.4482759,5,1.8965506)"/></svg>